<svg width="21" height="21" viewBox="0 0 21 21" fill="none" xmlns="http://www.w3.org/2000/svg">
<path d="M14.5 10.5C14.5 9.43914 14.0786 8.42172 13.3284 7.67158C12.5783 6.92143 11.5609 6.5 10.5 6.5C9.43914 6.5 8.42172 6.92143 7.67158 7.67158C6.92143 8.42172 6.5 9.43914 6.5 10.5C6.5 11.5609 6.92143 12.5783 7.67158 13.3284C8.42172 14.0786 9.43914 14.5 10.5 14.5C11.5609 14.5 12.5783 14.0786 13.3284 13.3284C14.0786 12.5783 14.5 11.5609 14.5 10.5ZM14.5 10.5V12C14.5 12.663 14.7634 13.2989 15.2322 13.7678C15.7011 14.2366 16.337 14.5 17 14.5C17.663 14.5 18.2989 14.2366 18.7678 13.7678C19.2366 13.2989 19.5 12.663 19.5 12V10.5C19.5 8.71997 18.9722 6.97991 17.9832 5.49987C16.9943 4.01983 15.5887 2.86628 13.9442 2.18509C12.2996 1.5039 10.49 1.32567 8.74419 1.67294C6.99836 2.0202 5.39472 2.87737 4.13604 4.13604C2.87737 5.39472 2.0202 6.99836 1.67294 8.74419C1.32567 10.49 1.5039 12.2996 2.18509 13.9442C2.86628 15.5887 4.01983 16.9943 5.49987 17.9832C6.97991 18.9722 8.71997 19.5 10.5 19.5C12.0802 19.5016 13.6327 19.0862 15 18.294" stroke="#6B7280" stroke-width="2" stroke-linecap="round" stroke-linejoin="round"/>
</svg>
